<?xml version="1.0" encoding="UTF-8"?>
<svg id="Layer_2" data-name="Layer 2" xmlns="http://www.w3.org/2000/svg" viewBox="0 0 1152 648">
  <defs>
    <style>
      .cls-1 {
        fill: #3e271d;
      }

      .cls-2 {
        fill: #75cf29;
      }
    </style>
  </defs>
  <rect class="cls-1" x="0" y="526.54" width="1152" height="130.61"/>
  <rect class="cls-2" x="0" y="486.54" width="1152" height="43.83"/>
  <circle class="cls-2" cx="17.4" cy="533.49" r="20.87"/>
  <circle class="cls-2" cx="47.4" cy="533.49" r="20.87"/>
  <circle class="cls-2" cx="17.4" cy="533.49" r="20.87"/>
  <circle class="cls-2" cx="27.4" cy="533.49" r="20.87"/>
  <circle class="cls-2" cx="37.4" cy="533.49" r="20.87"/>
  <circle class="cls-2" cx="47.4" cy="533.49" r="20.87"/>
  <circle class="cls-2" cx="57.4" cy="533.49" r="20.87"/>
  <circle class="cls-2" cx="67.4" cy="533.49" r="20.87"/>
  <circle class="cls-2" cx="77.4" cy="533.49" r="20.87"/>
  <circle class="cls-2" cx="87.4" cy="533.49" r="20.87"/>
  <circle class="cls-2" cx="97.4" cy="533.49" r="20.87"/>
  <circle class="cls-2" cx="107.4" cy="533.49" r="20.87"/>
  <circle class="cls-2" cx="117.4" cy="533.49" r="20.87"/>
  <circle class="cls-2" cx="127.4" cy="533.49" r="20.87"/>
  <circle class="cls-2" cx="137.4" cy="533.49" r="20.87"/>
  <circle class="cls-2" cx="147.4" cy="533.49" r="20.87"/>
  <circle class="cls-2" cx="157.4" cy="533.49" r="20.87"/>
  <circle class="cls-2" cx="167.4" cy="533.49" r="20.87"/>
  <circle class="cls-2" cx="177.4" cy="533.49" r="20.87"/>
  <circle class="cls-2" cx="187.4" cy="533.49" r="20.87"/>
  <circle class="cls-2" cx="197.4" cy="533.49" r="20.87"/>
  <circle class="cls-2" cx="207.4" cy="533.49" r="20.87"/>
  <circle class="cls-2" cx="217.4" cy="533.49" r="20.87"/>
  <circle class="cls-2" cx="227.4" cy="533.49" r="20.87"/>
  <circle class="cls-2" cx="237.4" cy="533.49" r="20.87"/>
  <circle class="cls-2" cx="247.4" cy="533.49" r="20.87"/>
  <circle class="cls-2" cx="257.4" cy="533.49" r="20.87"/>
  <circle class="cls-2" cx="267.4" cy="533.49" r="20.87"/>
  <circle class="cls-2" cx="277.4" cy="533.49" r="20.87"/>
  <circle class="cls-2" cx="287.4" cy="533.49" r="20.87"/>
  <circle class="cls-2" cx="297.4" cy="533.49" r="20.87"/>
  <circle class="cls-2" cx="307.4" cy="533.49" r="20.87"/>
  <circle class="cls-2" cx="317.4" cy="533.49" r="20.87"/>
  <circle class="cls-2" cx="327.4" cy="533.49" r="20.87"/>
  <circle class="cls-2" cx="337.4" cy="533.49" r="20.87"/>
  <circle class="cls-2" cx="347.4" cy="533.49" r="20.87"/>
  <circle class="cls-2" cx="357.4" cy="533.49" r="20.87"/>
  <circle class="cls-2" cx="367.4" cy="533.49" r="20.87"/>
  <circle class="cls-2" cx="377.4" cy="533.49" r="20.87"/>
  <circle class="cls-2" cx="387.4" cy="533.49" r="20.87"/>
  <circle class="cls-2" cx="397.4" cy="533.49" r="20.87"/>
  <circle class="cls-2" cx="407.4" cy="533.49" r="20.87"/>
  <circle class="cls-2" cx="417.4" cy="533.49" r="20.87"/>
  <circle class="cls-2" cx="427.4" cy="533.49" r="20.87"/>
  <circle class="cls-2" cx="437.4" cy="533.49" r="20.87"/>
  <circle class="cls-2" cx="447.4" cy="533.49" r="20.87"/>
  <circle class="cls-2" cx="457.4" cy="533.49" r="20.87"/>
  <circle class="cls-2" cx="467.4" cy="533.49" r="20.87"/>
  <circle class="cls-2" cx="477.4" cy="533.49" r="20.87"/>
  <circle class="cls-2" cx="487.4" cy="533.49" r="20.87"/>
  <circle class="cls-2" cx="497.4" cy="533.49" r="20.87"/>
  <circle class="cls-2" cx="507.4" cy="533.49" r="20.87"/>
  <circle class="cls-2" cx="517.4" cy="533.49" r="20.87"/>
  <circle class="cls-2" cx="527.4" cy="533.49" r="20.87"/>
  <circle class="cls-2" cx="537.4" cy="533.49" r="20.87"/>
  <circle class="cls-2" cx="547.4" cy="533.49" r="20.87"/>
  <circle class="cls-2" cx="557.4" cy="533.49" r="20.87"/>
  <circle class="cls-2" cx="567.4" cy="533.49" r="20.87"/>
  <circle class="cls-2" cx="577.4" cy="533.49" r="20.87"/>
  <circle class="cls-2" cx="587.4" cy="533.49" r="20.87"/>
  <circle class="cls-2" cx="597.4" cy="533.49" r="20.87"/>
  <circle class="cls-2" cx="607.4" cy="533.49" r="20.87"/>
  <circle class="cls-2" cx="617.4" cy="533.49" r="20.87"/>
  <circle class="cls-2" cx="627.4" cy="533.49" r="20.87"/>
  <circle class="cls-2" cx="637.4" cy="533.49" r="20.87"/>
  <circle class="cls-2" cx="647.4" cy="533.49" r="20.87"/>
  <circle class="cls-2" cx="657.4" cy="533.49" r="20.87"/>
  <circle class="cls-2" cx="667.4" cy="533.49" r="20.87"/>
  <circle class="cls-2" cx="677.4" cy="533.49" r="20.87"/>
  <circle class="cls-2" cx="687.4" cy="533.49" r="20.87"/>
  <circle class="cls-2" cx="697.4" cy="533.49" r="20.87"/>
  <circle class="cls-2" cx="707.4" cy="533.49" r="20.87"/>
  <circle class="cls-2" cx="717.4" cy="533.49" r="20.87"/>
  <circle class="cls-2" cx="727.4" cy="533.49" r="20.87"/>
  <circle class="cls-2" cx="737.4" cy="533.49" r="20.87"/>
  <circle class="cls-2" cx="747.4" cy="533.49" r="20.87"/>
  <circle class="cls-2" cx="757.4" cy="533.49" r="20.87"/>
  <circle class="cls-2" cx="767.4" cy="533.49" r="20.87"/>
  <circle class="cls-2" cx="777.4" cy="533.49" r="20.87"/>
  <circle class="cls-2" cx="787.4" cy="533.49" r="20.87"/>
  <circle class="cls-2" cx="797.4" cy="533.49" r="20.87"/>
  <circle class="cls-2" cx="807.4" cy="533.49" r="20.87"/>
  <circle class="cls-2" cx="817.4" cy="533.49" r="20.87"/>
  <circle class="cls-2" cx="827.4" cy="533.49" r="20.87"/>
  <circle class="cls-2" cx="837.4" cy="533.49" r="20.87"/>
  <circle class="cls-2" cx="847.4" cy="533.49" r="20.87"/>
  <circle class="cls-2" cx="857.4" cy="533.49" r="20.87"/>
  <circle class="cls-2" cx="867.4" cy="533.49" r="20.87"/>
  <circle class="cls-2" cx="877.4" cy="533.49" r="20.87"/>
  <circle class="cls-2" cx="887.4" cy="533.49" r="20.87"/>
  <circle class="cls-2" cx="897.4" cy="533.49" r="20.87"/>
  <circle class="cls-2" cx="907.4" cy="533.49" r="20.87"/>
  <circle class="cls-2" cx="917.4" cy="533.49" r="20.87"/>
  <circle class="cls-2" cx="927.4" cy="533.49" r="20.87"/>
  <circle class="cls-2" cx="937.4" cy="533.49" r="20.87"/>
  <circle class="cls-2" cx="947.4" cy="533.49" r="20.87"/>
  <circle class="cls-2" cx="957.4" cy="533.49" r="20.87"/>
  <circle class="cls-2" cx="967.4" cy="533.49" r="20.87"/>
  <circle class="cls-2" cx="977.4" cy="533.49" r="20.87"/>
  <circle class="cls-2" cx="987.4" cy="533.49" r="20.87"/>
  <circle class="cls-2" cx="997.4" cy="533.49" r="20.87"/>
  <circle class="cls-2" cx="1007.4" cy="533.49" r="20.87"/>
  <circle class="cls-2" cx="1017.4" cy="533.49" r="20.87"/>
  <circle class="cls-2" cx="1027.4" cy="533.49" r="20.87"/>
  <circle class="cls-2" cx="1037.4" cy="533.49" r="20.87"/>
  <circle class="cls-2" cx="1047.4" cy="533.49" r="20.87"/>
  <circle class="cls-2" cx="1057.4" cy="533.49" r="20.87"/>
  <circle class="cls-2" cx="1067.4" cy="533.49" r="20.87"/>
  <circle class="cls-2" cx="1077.4" cy="533.49" r="20.87"/>
  <circle class="cls-2" cx="1087.4" cy="533.49" r="20.87"/>
  <circle class="cls-2" cx="1097.4" cy="533.49" r="20.87"/>
  <circle class="cls-2" cx="1107.4" cy="533.49" r="20.87"/>
  <circle class="cls-2" cx="1117.4" cy="533.49" r="20.87"/>
  <circle class="cls-2" cx="1127.4" cy="533.49" r="20.87"/>
  <circle class="cls-2" cx="1137.4" cy="533.49" r="20.87"/>
  <circle class="cls-2" cx="1147.4" cy="533.49" r="20.87"/>
</svg>