<?xml version="1.0" encoding="UTF-8"?>
<svg id="Layer_1" data-name="Layer 1" xmlns="http://www.w3.org/2000/svg" viewBox="0 0 1152 648">
  <defs>
    <style>
      .cls-1 {
        fill: #1fb188;
      }

      .cls-2 {
        fill: #35ebf5;
      }

      .cls-3 {
        fill: #35bd5b;
      }

      .cls-4 {
        fill: #1eb285;
      }

      .cls-5 {
        fill: #45b832;
      }

      .cls-6 {
        fill: #27c4a6;
      }
    </style>
  </defs>
  <rect class="cls-2" y="0" width="1152" height="648"/>
  <path class="cls-4" d="M145.62,487.5c42.61-17.88,119.21-42.75,212.84-31.88,87.48,10.15,194.4,52.03,190.98,81.39-3.99,34.24-159.79,66.19-292.7,16.43-49.25-18.44-86.13-44.64-111.13-65.95Z"/>
  <path class="cls-6" d="M815.29,423.14c-76.64,10.32-162.54,26.7-254.88,52.57-60.72,17.01-116.62,35.98-167.48,55.57-6.26,2.35-12.52,4.7-18.78,7.04,31.04,14.18,59.82,21.71,84.79,25.56,180.3,27.78,326.65-111.33,356.36-140.74Z"/>
  <path class="cls-3" d="M0,362.23c54.76,10.67,96.34,27.14,124.49,40.43,86.7,40.94,112.94,83.31,207.17,113.63,26.37,8.48,33.27,8.05,61.26,18.77,42.8,16.39,127.29,55.95,122.87,83.22-1.43,8.85-13.46,24.01-91.57,32.01-141.41,1.37-282.82,2.75-424.23,4.12v-292.17Z"/>
  <path class="cls-1" d="M1152.45,316.06c-33.19,3.09-77.34,9.3-127.95,22.7-124.87,33.05-264,102.5-256.83,131.48,4.97,20.11,82.58,29.58,384.79-10.96v-143.22Z"/>
  <path class="cls-5" d="M1187.27,444.78c-33.27-5.59-76.48-11.35-127.19-14.19-34.07-1.91-109.61-4.62-199.16,5.99-197.27,23.36-343.8,97.29-411.65,132.26-51.52,26.56-112.77,62.34-178.43,110.35,305.48-3.53,610.96-7.06,916.43-10.6v-223.81Z"/>
</svg>